<?xml version="1.0" encoding="UTF-8"?>
<svg width="40px" height="37px" viewBox="0 0 40 37" version="1.1" xmlns="http://www.w3.org/2000/svg" xmlns:xlink="http://www.w3.org/1999/xlink">
    <!-- Generator: Sketch 64 (93537) - https://sketch.com -->
    <title>icon/autocheckin</title>
    <desc>Created with Sketch.</desc>
    <g id="Symbols" stroke="none" stroke-width="1" fill="none" fill-rule="evenodd">
        <g id="autocheckin/off" transform="translate(-30.000000, -20.000000)" fill-rule="nonzero">
            <g id="Group-5">
                <g id="icon/autocheckin" transform="translate(30.000000, 20.000000)">
                    <path d="M18.1132075,36.2264151 C28.1168558,36.2264151 36.2264151,28.1168558 36.2264151,18.1132075 C36.2264151,8.10955925 28.1168558,0 18.1132075,0 C8.10955925,0 0,8.10955925 0,18.1132075 C0,28.1168558 8.10955925,36.2264151 18.1132075,36.2264151 Z M18.1132075,33.2075472 C9.77683397,33.2075472 3.01886792,26.4495811 3.01886792,18.1132075 C3.01886792,9.77683397 9.77683397,3.01886792 18.1132075,3.01886792 C26.4495811,3.01886792 33.2075472,9.77683397 33.2075472,18.1132075 C33.2075472,26.4495811 26.4495811,33.2075472 18.1132075,33.2075472 Z" id="Oval" fill="#00266B"></path>
                    <path d="M15.0842722,27.2865041 L6.78282683,19.1621043 C4.90605751,17.3255113 4.71180214,14.2925493 6.62796268,12.4193995 C8.50345752,10.5840537 11.4878062,10.7688232 13.3513918,12.5927106 L18.5209351,17.7501195 L32.0161409,6.39372052 C33.8841392,8.10018671 35.1412177,10.6988564 35.7873765,14.1897295 L21.8999123,27.3272661 C19.999487,29.1433631 16.967895,29.1298039 15.0842722,27.2865041 Z" id="Fill-1" fill="#FFFFFF"></path>
                    <path d="M19.8305314,25.128959 L39.245283,7.28994693 C39.9700201,6.58072443 40.0386222,5.49063548 39.4008264,4.86449902 C38.7623514,4.23902726 37.6456993,4.30682547 36.9209623,5.01538329 L19.2864692,21.1408287 C18.5624113,21.8493865 18.3688311,21.8493865 17.6454525,21.1408287 L11.2192695,14.7299092 C10.4952116,14.0213514 9.3785596,13.9515592 8.73940536,14.5770309 C8.09957189,15.2025027 8.17021168,16.2959151 8.89426951,17.0044729 L17.1958031,25.128959 C17.9198609,25.8375168 19.1064735,25.8375168 19.8305314,25.128959 Z" id="Path" fill="#F7B500"></path>
                </g>
            </g>
        </g>
    </g>
</svg>