<svg width="12" height="13" viewBox="0 0 12 13" fill="none" xmlns="http://www.w3.org/2000/svg">
<path d="M0.5 3.78646V5.21845C0.5 5.58311 0.797734 5.87868 1.16507 5.87868H5.59559L5.5955 3.12611H1.16498C0.797641 3.12611 0.5 3.4218 0.5 3.78646Z" fill="#00266B"/>
<path d="M10.8347 3.12611H6.4042V5.87868H10.8347C11.2021 5.87868 11.4998 5.58311 11.4998 5.21845V3.78646C11.4997 3.4218 11.2021 3.12611 10.8347 3.12611Z" fill="#00266B"/>
<path d="M1.11905 12.0725C1.11905 12.3087 1.31195 12.5002 1.54992 12.5002H5.59646L5.59636 6.36698H1.11907L1.11905 12.0725Z" fill="#00266B"/>
<path d="M6.4042 12.4993H10.4507C10.6887 12.4993 10.8816 12.3078 10.8816 12.0716L10.8815 6.36601H6.40423L6.4042 12.4993Z" fill="#00266B"/>
<path d="M3.16449 2.66183C3.30389 2.73903 3.58739 2.84152 4.43666 2.84152C4.90473 2.84152 5.3189 2.8098 5.33624 2.80841C5.43002 2.80125 5.51397 2.74777 5.55978 2.66611C5.60559 2.58455 5.60718 2.48559 5.56409 2.40254C5.43583 2.15534 4.7715 0.909003 4.29633 0.64608C4.12348 0.550379 3.92806 0.499878 3.73113 0.499878C3.30954 0.499878 2.92019 0.726807 2.7151 1.09213C2.40312 1.64802 2.60462 2.35212 3.16449 2.66183ZM3.20599 1.36369C3.31195 1.17489 3.5132 1.0577 3.73112 1.0577C3.83249 1.0577 3.93329 1.08383 4.02257 1.13331C4.19692 1.22985 4.5504 1.74454 4.85516 2.27541C4.72906 2.28006 4.58506 2.28341 4.43648 2.28341C3.69279 2.28341 3.48425 2.19998 3.43787 2.17431C3.14903 2.01453 3.04475 1.6508 3.20599 1.36369Z" fill="#00266B"/>
<path d="M6.66342 2.80853C6.68084 2.80983 7.09493 2.84164 7.563 2.84164C8.41227 2.84164 8.69575 2.73915 8.83517 2.66195C9.39495 2.35225 9.59656 1.64812 9.28458 1.09222C9.0795 0.726802 8.69014 0.499878 8.26856 0.499878C8.07163 0.499878 7.8762 0.550379 7.70335 0.645987C7.22819 0.90891 6.56384 2.15527 6.4356 2.40245C6.3925 2.4855 6.39409 2.58446 6.43991 2.66602C6.48572 2.74777 6.56964 2.80118 6.66342 2.80853ZM7.97701 1.13335C8.06629 1.08387 8.16719 1.05774 8.26846 1.05774C8.48647 1.05774 8.68762 1.17492 8.79358 1.36373C8.95473 1.65084 8.85064 2.01438 8.56152 2.17455C8.51533 2.20012 8.3066 2.28364 7.56291 2.28364C7.41432 2.28364 7.27052 2.2802 7.14423 2.27564C7.44918 1.74458 7.80265 1.22989 7.97701 1.13335Z" fill="#00266B"/>
</svg>
