<?xml version="1.0" encoding="UTF-8"?>
<svg width="11px" height="11px" viewBox="0 0 11 11" version="1.1" xmlns="http://www.w3.org/2000/svg" xmlns:xlink="http://www.w3.org/1999/xlink">
    <!-- Generator: Sketch 64 (93537) - https://sketch.com -->
    <title>icon/clock</title>
    <desc>Created with Sketch.</desc>
    <defs>
        <path d="M5.49737222,1.06976486 C7.92256667,1.06976486 9.89523333,2.98941351 9.89523333,5.34876486 C9.89523333,7.70841351 7.92256667,9.62776486 5.49737222,9.62776486 C3.07248333,9.62776486 1.09951111,7.70841351 1.09951111,5.34876486 C1.09951111,2.98941351 3.07248333,1.06976486 5.49737222,1.06976486 M5.49737222,8.91891892e-05 C8.52878889,8.91891892e-05 10.9949278,2.39957568 10.9949278,5.34876486 C10.9949278,8.29825135 8.52878889,10.6977378 5.49737222,10.6977378 C2.46626111,10.6977378 0.000122222222,8.29825135 0.000122222222,5.34876486 C0.000122222222,2.39957568 2.46626111,8.91891892e-05 5.49737222,8.91891892e-05 Z M5.49749444,2.44024595 C5.19377222,2.44024595 4.9478,2.67986757 4.9478,2.97538108 L4.9478,5.34870541 C4.9478,5.38378649 4.95146667,5.41886757 4.95849444,5.45365135 C4.96155,5.46881351 4.96735556,5.48278649 4.97193889,5.49765135 C4.97743889,5.51638108 4.98202222,5.53540811 4.98966111,5.55354324 C4.99699444,5.57048919 5.00707778,5.58624595 5.01593889,5.6023 C5.02418889,5.61657027 5.03060556,5.63173243 5.04038333,5.64540811 C5.05871667,5.67216486 5.0798,5.69713784 5.10271667,5.72002973 L5.10852222,5.72716486 L5.10852222,5.72716486 L7.30760556,7.86651622 C7.52210556,8.07551622 7.87013333,8.07551622 8.08493889,7.86651622 C8.29943889,7.65751622 8.29943889,7.31889459 8.08493889,7.11019189 L6.04718889,5.12721892 L6.04718889,2.97538108 C6.04718889,2.67986757 5.80091111,2.44024595 5.49749444,2.44024595 Z" id="path-1"></path>
    </defs>
    <g id="Symbols" stroke="none" stroke-width="1" fill="none" fill-rule="evenodd">
        <g id="flight/layover/2" transform="translate(-30.000000, -158.000000)">
            <g id="Group-8">
                <g id="Group-3" transform="translate(20.000000, 153.000000)">
                    <g id="icon/clock" transform="translate(10.000000, 5.000000)">
                        <g id="Page-1" transform="translate(0.000000, 0.297297)">
                            <g id="color/lightgrey">
                                <mask id="mask-2" fill="white">
                                    <use xlink:href="#path-1"></use>
                                </mask>
                                <use id="Mask" fill="#000000" xlink:href="#path-1"></use>
                                <g id="color/almostblack" mask="url(#mask-2)" fill="#222222">
                                    <g transform="translate(0.000000, -0.297297)" id="Rectangle-3">
                                        <rect x="0" y="0" width="11" height="11"></rect>
                                    </g>
                                </g>
                            </g>
                        </g>
                    </g>
                </g>
            </g>
        </g>
    </g>
</svg>