<?xml version="1.0" encoding="UTF-8"?>
<svg width="25px" height="16px" viewBox="0 0 25 16" version="1.1" xmlns="http://www.w3.org/2000/svg" xmlns:xlink="http://www.w3.org/1999/xlink">
    <title>icon/promocode</title>
    <g id="Symbols" stroke="none" stroke-width="1" fill="none" fill-rule="evenodd">
        <g id="promo-applied" transform="translate(-23.000000, -21.000000)" fill="#00266B">
            <g id="icon/promocode" transform="translate(23.000000, 21.000000)">
                <path d="M5.42857143,0 L5.42857143,1.6 L6.97959184,1.6 L6.97959184,0 L22.7142857,0 C23.8188552,-2.16501571e-15 24.7142857,0.8954305 24.7142857,2 L24.7142857,14 C24.7142857,15.1045695 23.8188552,16 22.7142857,16 L6.97959184,16 L6.97959184,15.04 L5.42857143,15.04 L5.42857143,16 L2,16 C0.8954305,16 1.3527075e-16,15.1045695 0,14 L0.000501765887,10.7992193 C1.10207294,10.5148571 1.91596639,9.51267615 1.91596639,8.32 C1.91596639,7.12732385 1.10207294,6.12514289 0.000501765887,5.84078066 L0,2 C-1.3527075e-16,0.8954305 0.8954305,2.02906125e-16 2,0 L5.42857143,0 Z M6.97959184,12.48 L5.42857143,12.48 L5.42857143,14.4 L6.97959184,14.4 L6.97959184,12.48 Z M18.4985994,9.38666667 C17.7343735,9.38666667 17.1148459,10.0074985 17.1148459,10.7733333 C17.1148459,11.5391682 17.7343735,12.16 18.4985994,12.16 C19.2628254,12.16 19.8823529,11.5391682 19.8823529,10.7733333 C19.8823529,10.0074985 19.2628254,9.38666667 18.4985994,9.38666667 Z M18.2523379,4.23834858 L12.1242866,11.1716819 C11.9071258,11.4173797 11.9298411,11.7929715 12.1750227,12.0105895 C12.4202044,12.2282076 12.795007,12.2054445 13.0121679,11.9597467 L19.1402192,5.02641333 C19.3573801,4.7807155 19.3346647,4.40512376 19.0894831,4.18750569 C18.8443014,3.96988762 18.4694988,3.99265076 18.2523379,4.23834858 Z M6.97959184,9.92 L5.42857143,9.92 L5.42857143,11.84 L6.97959184,11.84 L6.97959184,9.92 Z M6.97959184,7.36 L5.42857143,7.36 L5.42857143,9.28 L6.97959184,9.28 L6.97959184,7.36 Z M6.97959184,4.8 L5.42857143,4.8 L5.42857143,6.72 L6.97959184,6.72 L6.97959184,4.8 Z M12.9635854,3.84 C12.1993595,3.84 11.5798319,4.46083181 11.5798319,5.22666667 C11.5798319,5.99250152 12.1993595,6.61333333 12.9635854,6.61333333 C13.7278114,6.61333333 14.3473389,5.99250152 14.3473389,5.22666667 C14.3473389,4.46083181 13.7278114,3.84 12.9635854,3.84 Z M6.97959184,2.24 L5.42857143,2.24 L5.42857143,4.16 L6.97959184,4.16 L6.97959184,2.24 Z" id="Combined-Shape"></path>
            </g>
        </g>
    </g>
</svg>