<?xml version="1.0" encoding="UTF-8"?>
<svg width="15px" height="22px" viewBox="0 0 15 22" version="1.1" xmlns="http://www.w3.org/2000/svg" xmlns:xlink="http://www.w3.org/1999/xlink">
    <!-- Generator: Sketch 64 (93537) - https://sketch.com -->
    <title>Shape</title>
    <desc>Created with Sketch.</desc>
    <g id="Symbols" stroke="none" stroke-width="1" fill="none" fill-rule="evenodd">
        <g id="visa-and-special-assistance" transform="translate(-28.000000, -14.000000)" fill="#00266B" fill-rule="nonzero">
            <g id="Group-4">
                <g id="Group-2">
                    <g id="Group-5">
                        <path d="M35.1842105,14 C31.2272174,14 28,17.3303737 28,21.424833 C28,23.8065941 28.8587657,25.1220117 29.5827714,26.1369712 C30.3067771,27.1518932 30.8736842,27.8485881 30.8736842,29.7149222 C30.8737239,30.1281962 31.1953487,30.4632519 31.5921053,30.4632519 L38.7763158,30.4632519 C39.1730724,30.4632519 39.4946972,30.1281962 39.4947368,29.7149222 C39.4947368,27.8485881 40.061644,27.1518932 40.7856497,26.1369712 C41.5096554,25.1220117 42.3684211,23.8065941 42.3684211,21.424833 C42.3684211,17.3303737 39.1412036,14 35.1842105,14 Z M35.1842105,15.4966593 C38.3714744,15.4966593 40.9315789,18.1461502 40.9315789,21.424833 C40.9315789,23.469206 40.3535025,24.2490328 39.6406661,25.2483298 C39.0168644,26.1227903 38.3005989,27.2211886 38.1252467,28.9665926 L35.9026316,28.9665926 L35.9026316,24.3221912 C36.7349066,24.0103357 37.3394737,23.1741462 37.3394737,22.2058215 C37.3394737,20.9748192 36.3660178,19.9608326 35.1842105,19.9608326 C34.0024032,19.9608326 33.0289474,20.9748192 33.0289474,22.2058215 C33.0289474,23.1741462 33.6335145,24.0103357 34.4657895,24.3221912 L34.4657895,28.9665926 L32.2431743,28.9665926 C32.0678221,27.2211886 31.3515567,26.1227903 30.7277549,25.2483298 C30.0149185,24.2490328 29.4368421,23.469206 29.4368421,21.424833 C29.4368421,18.1461502 31.9969467,15.4966593 35.1842105,15.4966593 Z M35.1842105,21.4574918 C35.5894952,21.4574918 35.9026316,21.7836663 35.9026316,22.2058215 C35.9026316,22.6279804 35.5894952,22.9541511 35.1842105,22.9541511 C34.7789259,22.9541511 34.4657895,22.6279804 34.4657895,22.2058215 C34.4657895,21.7836663 34.7789259,21.4574918 35.1842105,21.4574918 Z M31.4581145,31.7136351 C31.3401694,31.9514587 32.3530085,35.2367628 32.4917944,35.4620511 C32.6305802,35.6873394 32.8742221,35.8183758 33.1309211,35.8057885 L37.2375,35.8057885 C37.4965878,35.8096042 37.7375779,35.6678138 37.8681909,35.4347114 C37.9988038,35.2016089 38.9988038,31.9133088 38.8681909,31.6802063 C38.7375779,31.4471039 38.4965878,31.3053135 38.2375,31.3091292 L32.1309211,31.3091292 C32.1084827,31.3080325 32.0860074,31.3080325 32.0635691,31.3091292 C31.8068653,31.3216096 31.5760596,31.4758115 31.4581145,31.7136351 Z" id="Shape"></path>
                    </g>
                </g>
            </g>
        </g>
    </g>
</svg>