<?xml version="1.0" encoding="UTF-8"?>
<svg width="47px" height="38px" viewBox="0 0 47 38" version="1.1" xmlns="http://www.w3.org/2000/svg" xmlns:xlink="http://www.w3.org/1999/xlink">
    <!-- Generator: Sketch 52.5 (67469) - http://www.bohemiancoding.com/sketch -->
    <title>destination-guide</title>
    <desc>Created with Sketch.</desc>
    <g id="Page-1" stroke="none" stroke-width="1" fill="none" fill-rule="evenodd">
        <g id="destination-guide">
            <polygon id="Fill-1" fill="#00216D" points="0.262616852 22.7189334 1.69803815 24.4162666 -0.000181240063 25.8476 1.43524007 27.5449334 3.13345946 26.1117905 4.56888076 27.8091238 6.26891256 26.375981 4.83439746 24.6786476 6.53352306 23.2464095 5.09810175 21.549981 3.39897615 22.982219 1.96355485 21.2857905"></polygon>
            <polygon id="Fill-2" fill="#00216D" points="21.0249349 22.028781 19.5287981 23.670019 18.5410397 22.7734 20.0371765 21.1321619"></polygon>
            <polygon id="Fill-3" fill="#00216D" points="19.1868887 25.3350524 19.0409905 27.5499095 17.7079698 27.4639571 17.8556804 25.2472905"></polygon>
            <polygon id="Fill-4" fill="#00216D" points="22.2294563 14.4384619 14.6663084 10.6312238 7.10406678 14.4384619 7.10406678 37.2809857 14.6663084 33.4737476 22.2294563 37.2809857 29.7926041 33.4737476 37.3548458 37.2809857 37.3548458 36.3925095 37.3548458 15.3260334 37.3548458 15.0727 37.3548458 14.4384619 29.7926041 10.6312238"></polygon>
            <polygon id="Fill-5" fill="#FFFFFF" points="14.6665802 32.5864476 22.2297281 36.392781 22.2297281 15.3263048 14.6665802 11.5190666"></polygon>
            <polygon id="Fill-6" fill="#FFFFFF" points="36.4648664 35.9448334 29.7925135 32.5863571 29.7925135 11.5189762 36.4648664 14.8783571"></polygon>
            <g id="Group-41" transform="translate(6.343403, 0.185566)">
                <path d="M1.30094117,30.3183 C0.722785374,29.8505381 0.415583466,29.4361571 0.402896662,29.4198714 L0.402896662,28.0817286 L0.189939586,27.5388714 L1.31272178,28.7485381 C1.31544038,28.7521571 1.55558347,29.0706334 2.01321462,29.440681 L1.30094117,30.3183 Z" id="Fill-7" fill="#FFFFFF"></path>
                <path d="M5.28061049,31.7347048 C4.65533227,31.7347048 4.03820986,31.6433238 3.45099205,31.464181 L3.78084897,30.3848 C4.41247059,30.578419 5.06493482,30.6462762 5.77720827,30.5838476 L5.87417171,31.7084666 C5.67208903,31.7256571 5.47363117,31.7347048 5.28061049,31.7347048" id="Fill-9" fill="#FFFFFF"></path>
                <path d="M8.19739746,31.1258905 L7.7696709,30.0817952 C8.22367727,29.896319 8.68946423,29.6619857 9.15615739,29.3815095 C9.21959142,29.326319 9.35099046,29.2105095 9.54582353,29.0494619 L10.2653466,29.9207476 C10.0161415,30.1270334 9.88021144,30.2491762 9.87477424,30.2546048 L9.78596662,30.3206524 C9.25402703,30.6427476 8.71936883,30.9141762 8.19739746,31.1258905" id="Fill-11" fill="#00216D"></path>
                <path d="M12.0160349,28.610381 L11.3762576,27.679381 C12.0087854,27.2450952 12.658531,26.8370476 13.3073705,26.4660952 L13.8692146,27.4450476 C13.246655,27.800619 12.6231892,28.192381 12.0160349,28.610381" id="Fill-13" fill="#00216D"></path>
                <path d="M15.811655,26.4439286 L15.3395246,25.4179286 C16.0490795,25.0913095 16.765884,24.8054048 17.4672829,24.5674524 L17.8315755,25.6359762 C17.1655183,25.8603571 16.4867743,26.1326905 15.811655,26.4439286" id="Fill-15" fill="#FFFFFF"></path>
                <path d="M30.7604261,26.2186429 C30.0572146,26.1697857 29.2887568,26.0648334 28.4768013,25.9037857 L28.6961018,24.7972619 C29.4609349,24.9492619 30.1822703,25.0469762 30.8374531,25.0922143 L30.7604261,26.2186429 Z" id="Fill-17" fill="#00216D"></path>
                <path d="M32.3701097,26.1311524 L32.1761829,25.0182952 C32.9228919,24.889819 33.507391,24.6392 33.9106502,24.2718666 L34.6709523,25.1069619 C34.1054833,25.6208666 33.3315883,25.9637714 32.3701097,26.1311524" id="Fill-19" fill="#00216D"></path>
                <path d="M26.2559761,25.3571286 C25.6533529,25.1816048 25.2337822,25.0359381 25.1051018,24.9907 C24.7978998,24.9273666 24.4897917,24.880319 24.183496,24.8450334 L24.3139889,23.7222238 C24.6655946,23.7638429 25.0190127,23.8199381 25.3715246,23.892319 L25.4521765,23.9149381 C25.4612385,23.9176524 25.8925898,24.0741762 26.5731462,24.2741286 L26.2559761,25.3571286 Z" id="Fill-21" fill="#00216D"></path>
                <path d="M19.9187361,25.0656143 L19.6912798,23.9599952 C20.4669873,23.8007571 21.2399761,23.6976143 21.9866852,23.6569 L22.049213,24.7842334 C21.3577822,24.8213286 20.6409777,24.9172334 19.9187361,25.0656143" id="Fill-23" fill="#FFFFFF"></path>
                <path d="M35.8188363,22.8513905 L34.7159905,22.602581 C34.8174849,22.1583429 34.9479777,21.4327238 35.0023498,20.4863429 L36.1314754,20.550581 C36.0716662,21.5747714 35.9293927,22.3673429 35.8188363,22.8513905" id="Fill-25" fill="#00216D"></path>
                <path d="M34.9816883,18.3293905 C34.9300349,17.6227714 34.834884,16.9007714 34.6989539,16.1832952 L35.8099554,15.9733905 C35.9531351,16.731581 36.0546295,17.498819 36.1090016,18.2488666 L34.9816883,18.3293905 Z" id="Fill-27" fill="#00216D"></path>
                <path d="M34.1861351,14.0714905 C33.9822401,13.3902048 33.7411908,12.6980619 33.4666121,12.0167762 L34.5159921,11.5969666 C34.8023514,12.3108238 35.0560874,13.0346334 35.2690446,13.7503 L34.1861351,14.0714905 Z" id="Fill-29" fill="#00216D"></path>
                <path d="M33.2471304,9.98594762 C33.0948887,9.66023334 32.9326788,9.32909048 32.761407,8.99251905 L33.7681955,8.47770952 C33.9467171,8.82785238 34.1152703,9.17256666 34.2729491,9.51456666 L33.2471304,9.98594762 Z" id="Fill-31" fill="#00216D"></path>
                <path d="M29.9842655,9.01839524 C30.0685421,9.12787143 32.7001478,12.739681 33.8791144,14.3157762 C34.1536932,14.6686334 34.6983196,14.665919 34.9438998,14.3121571 C36.1092734,12.7288238 38.7435978,9.0953 38.8233434,8.95958571 C39.0952035,8.52168095 39.3389714,8.05844286 39.4739952,7.53910952 C39.6334865,7.04963334 39.6869523,6.55834762 39.6860461,6.01549048 C39.6706407,2.63710952 36.4971272,0.00696666666 32.9828824,0.892728571 C30.6385421,1.50072857 29.0644721,3.60339524 29.0744404,6.05439524 C29.0762527,6.59996666 29.1596232,7.08944286 29.2982719,7.57801429 C29.4641065,8.0955381 29.6843132,8.58501429 29.9842655,9.01839524" id="Fill-33" fill="#F8941A"></path>
                <path d="M38.246275,5.97902857 C38.246275,5.96998095 38.246275,5.96093334 38.2453689,5.95188571 C38.2263387,5.49769524 38.1302814,5.06521905 37.9662592,4.66712381 C37.9617281,4.65988571 37.9617281,4.65445714 37.9599158,4.64902857 C37.9508538,4.62821905 37.9399793,4.60379048 37.9318235,4.58207619 C37.920043,4.55493334 37.9073561,4.52688571 37.8937631,4.49974286 C37.8946693,4.49793334 37.8946693,4.49793334 37.8937631,4.49793334 C37.2657663,3.14893334 35.8783736,2.22879048 34.2970541,2.27040952 C34.2861797,2.27131429 34.2780239,2.27131429 34.2680556,2.27131429 C34.2580874,2.27221905 34.2490254,2.27131429 34.2390572,2.27221905 C33.7506153,2.2948381 33.2875469,2.40431429 32.86707,2.58617143 C32.8634451,2.58798095 32.862539,2.58798095 32.8607266,2.58888571 C32.8335405,2.60155238 32.8072608,2.61331429 32.7818871,2.62507619 C32.7646693,2.63321905 32.7492639,2.6413619 32.7320461,2.64769524 C32.7202655,2.65312381 32.7102973,2.65945714 32.6985167,2.66488571 C31.392682,3.30907619 30.5127615,4.67164762 30.5535405,6.21698095 C30.5535405,6.22602857 30.5544468,6.23507619 30.5544468,6.24321905 C30.5544468,6.25407619 30.5553529,6.26312381 30.5553529,6.27398095 C30.5761955,6.7598381 30.6858458,7.22126666 30.8707106,7.64288571 C30.8761478,7.6573619 30.8833975,7.67093334 30.8897408,7.68540952 C30.8960842,7.69898095 30.9015214,7.71345714 30.9060525,7.72612381 C31.5358617,9.07602857 32.9241606,9.9943619 34.5081987,9.95274286 C34.5172608,9.95274286 34.5254165,9.95274286 34.5326662,9.95274286 C34.5417281,9.9518381 34.5507901,9.9518381 34.5616646,9.9518381 C34.9821415,9.93374286 35.3854007,9.84779048 35.7587552,9.70755238 C35.7741606,9.70121905 35.7904721,9.69488571 35.8067838,9.68945714 C35.8176582,9.68402857 35.8321574,9.67950476 35.8448442,9.67407619 C37.2902337,9.08779048 38.2933975,7.65102857 38.2471813,6.00345714 C38.2471813,5.99531429 38.2471813,5.98626666 38.246275,5.97902857" id="Fill-35" fill="#FFFFFF"></path>
                <path d="M34.4799253,3.2585 C34.8523736,3.24311905 35.1822306,3.55345238 35.1940111,3.9352619 C35.2048856,4.31888095 34.9058394,4.64188095 34.5261415,4.65635714 C34.1455374,4.66992857 33.8238363,4.3677381 33.809337,3.98502381 C33.7930254,3.59869048 34.0920716,3.27569048 34.4799253,3.2585" id="Fill-37" fill="#F8941A"></path>
                <path d="M35.5798712,8.02270476 C35.3496964,8.29594286 35.0615246,8.46965714 34.6999507,8.50765714 C34.5033052,8.52846666 34.3039412,8.54746666 34.1072957,8.50132381 C33.746628,8.41718095 33.4956105,8.0978 33.5273275,7.7295619 C33.5617631,7.36494286 33.6188538,7.0030381 33.6668824,6.64294286 C33.7085676,6.32537143 33.7538775,6.00870476 33.7946566,5.69384762 C33.801,5.64227619 33.7946566,5.5898 33.7865008,5.53732381 C33.7720016,5.44775238 33.714911,5.39346666 33.6251971,5.37899048 C33.5726376,5.37175238 33.5200779,5.37899048 33.4675183,5.36813334 C33.3968347,5.35094286 33.3198076,5.33646666 33.2590922,5.29665714 C33.1621288,5.23332381 33.1757218,5.0958 33.2826534,5.04694286 C33.335213,5.02160952 33.3977408,5.00984762 33.4557376,5.0080381 C33.6813815,4.99537143 33.9088378,4.9890381 34.1353879,4.98270476 L34.1353879,4.98360952 C34.3646566,4.97637143 34.5966439,4.96732381 34.827725,4.95918095 C34.9808728,4.9555619 35.0533689,5.01799048 35.0896169,5.16365714 C35.1222401,5.28941905 35.0923354,5.41065714 35.0714928,5.53551429 C34.9926534,6.05665714 34.9165326,6.57599048 34.8404117,7.09713334 C34.814132,7.25727619 34.7951018,7.41832381 34.7733529,7.58118095 C34.7706343,7.60832381 34.7715405,7.63637143 34.7733529,7.66441905 C34.7869459,7.97837143 34.9890286,8.01184762 35.2155787,7.91413334 C35.2781065,7.88608571 35.3333847,7.84084762 35.3931939,7.8055619 C35.4992194,7.74584762 35.5572162,7.74041905 35.5989014,7.79018095 C35.6550858,7.84718095 35.6523673,7.93675238 35.5798712,8.02270476" id="Fill-39" fill="#F8941A"></path>
            </g>
        </g>
    </g>
</svg>