<?xml version="1.0" encoding="UTF-8"?>
<svg width="10px" height="12px" viewBox="0 0 10 12" version="1.1" xmlns="http://www.w3.org/2000/svg" xmlns:xlink="http://www.w3.org/1999/xlink">
    <title>fi-rr-copy-alt</title>
    <g id="Symbols" stroke="none" stroke-width="1" fill="none" fill-rule="evenodd">
        <g id="click-to-copy-email" transform="translate(-180.000000, -4.000000)" fill="#0254EC" fill-rule="nonzero">
            <g id="fi-rr-copy-alt" transform="translate(180.000000, 4.000000)">
                <path d="M5.5,9.72222503 C6.88002658,9.72061789 7.99834694,8.63336355 8,7.29167298 L8,3.03480412 C8.00157082,2.51868093 7.79053562,2.02343018 7.414,1.65959777 L6.293,0.569738237 C5.91877185,0.203662466 5.40937034,-0.00151034308 4.8785,8.37160747e-06 L2.5,8.37160747e-06 C1.11997342,0.00162397403 0.00165305817,1.08887832 0,2.43056888 L0,7.29167298 C0.00165305817,8.63336355 1.11997342,9.72061789 2.5,9.72222503 L5.5,9.72222503 Z M1,7.29167298 L1,2.43056888 C1,1.62515479 1.67157288,0.972237656 2.5,0.972237656 C2.5,0.972237656 4.9595,0.979043201 5,0.983904305 L5,1.94445847 C5,2.48140121 5.44771525,2.91667929 6,2.91667929 L6.988,2.91667929 C6.993,2.95605424 7,7.29167298 7,7.29167298 C7,8.09708708 6.32842712,8.75000421 5.5,8.75000421 L2.5,8.75000421 C1.67157288,8.75000421 1,8.09708708 1,7.29167298 Z M10,3.88890011 L10,9.23611462 C9.99834694,10.5778052 8.88002658,11.6650595 7.5,11.6666667 L3,11.6666667 C2.72385763,11.6666667 2.5,11.4490276 2.5,11.1805563 C2.5,10.9120849 2.72385763,10.6944458 3,10.6944458 L7.5,10.6944458 C8.32842712,10.6944458 9,10.0415287 9,9.23611462 L9,3.88890011 C9,3.62042875 9.22385763,3.4027897 9.5,3.4027897 C9.77614237,3.4027897 10,3.62042875 10,3.88890011 Z" id="Shape"></path>
            </g>
        </g>
    </g>
</svg>