<?xml version="1.0" encoding="UTF-8"?>
<svg width="60px" height="60px" viewBox="0 0 60 60" version="1.1" xmlns="http://www.w3.org/2000/svg" xmlns:xlink="http://www.w3.org/1999/xlink">
    <title>10161161-886E-4397-A8EB-1299E45F7BCC</title>
    <g id="Symbols" stroke="none" stroke-width="1" fill="none" fill-rule="evenodd">
        <g id="icon-flexible-travel-plans">
            <circle id="Oval" fill="#E5E9F0" cx="30" cy="30" r="30"></circle>
            <g id="icon-regulatory-approved-itineraries" transform="translate(10.000000, 11.000000)">
                <ellipse id="Oval" fill="#C2CCDE" cx="32.2145604" cy="38.6436813" rx="3.47637363" ry="1.73818681"></ellipse>
                <path d="M9.21456044,6.21456044 C23.8812271,3.97755458 31.2145604,5.7157414 31.2145604,11.4291209 C31.2145604,16.9321289 27.3344727,17.6477191 21.6000977,17.6477191 C17.1945264,17.6477191 7.88671875,17.6477191 7.88671875,25.4414063 C7.88671875,31.4134115 15.8411458,33.2005912 31.75,30.8029454" id="Path-5" stroke="#00266B" stroke-width="0.7" stroke-dasharray="2,1"></path>
                <circle id="Oval" fill="#00266B" cx="28" cy="9" r="9"></circle>
                <path d="M26.849701,4.05685896 L28.1156723,7.80844604 L28.0188528,8.48302512 L24.7393736,8.51062655 L23.3022795,6.93292851 L23.1328454,6.91305548 L23.5617783,8.86834115 L23.3979732,8.99585978 L23.3546296,9.03008556 L23.3923441,9.06099917 L23.5499573,9.18686172 L23,11.1487717 L23.1705599,11.1266906 L24.7055994,9.52856749 L27.9850785,9.50924648 L28.0402431,10.1821695 L26.5451699,13.9530776 L27.2555548,14 L30.4156983,9.50759039 L33.1986961,9.48606128 C33.1986961,9.48606128 33.8561681,9.29837152 33.9771925,9.03339774 L33.9771925,9.03339774 C33.9783183,9.03284571 33.9783183,9.03284571 33.9783183,9.03229368 L33.9783183,9.03229368 C34.1511298,8.68506762 33.2341591,8.43058239 33.2341591,8.43058239 L33.2341591,8.43058239 L30.4511613,8.44935137 L27.5640263,4 L26.849701,4.05685896 Z" id="Clip-2" fill="#E5E9F0"></path>
                <circle id="Oval" stroke="#00266B" fill="#FFFFFF" cx="5.21456044" cy="5.21456044" r="5.21456044"></circle>
                <circle id="Oval" fill="#C2CCDE" cx="5.21456044" cy="5.21456044" r="3"></circle>
                <path d="M32.2145604,37.2320835 C35.6909341,33.1403496 37.4291209,30.1345086 37.4291209,28.2145604 C37.4291209,25.3346382 35.0944826,23 32.2145604,23 C29.3346382,23 27,25.3346382 27,28.2145604 C27,30.1345086 28.7381868,33.1403496 32.2145604,37.2320835 Z" id="Oval-Copy" stroke="#00266B" fill="#FFFFFF"></path>
                <circle id="Oval" fill="#C2CCDE" cx="32.2145604" cy="28.2145604" r="3"></circle>
            </g>
        </g>
    </g>
</svg>