<?xml version="1.0" encoding="UTF-8"?>
<svg width="60px" height="60px" viewBox="0 0 60 60" version="1.1" xmlns="http://www.w3.org/2000/svg" xmlns:xlink="http://www.w3.org/1999/xlink">
    <title>icon/c19/VTL</title>
    <g id="icon/c19/VTL" stroke="none" stroke-width="1" fill="none" fill-rule="evenodd">
        <g id="Group-2">
            <g id="Oval-Copy-4-2" fill="#E5E9F0" fill-rule="nonzero">
                <path d="M30,60 C46.5685425,60 60,46.5685425 60,30 C60,22.6220927 57.3366949,15.8662337 52.9190485,10.6413866 C47.4160006,4.13281142 39.1906352,0 30,0 C13.4314575,0 0,13.4314575 0,30 C0,46.5685425 13.4314575,60 30,60 Z" id="Oval-Copy-4"></path>
            </g>
            <g id="Group-15-Copy" transform="translate(30.990504, 31.973909) rotate(-20.000000) translate(-30.990504, -31.973909) translate(8.990504, 22.001674)">
                <path d="M11.6263408,6.44319553 C8.91526889,3.2063551 7.17631276,1.29006316 6.40947245,0.694319705 C5.64263213,0.0985762544 4.55427901,-0.113795253 3.1444131,0.0572051815 L6.40947245,6.44319553" id="Path-4" fill="#FFFFFF"></path>
                <path d="M6.89016534,6.37272079 C25.2306676,6.37272079 35.2659371,6.37272079 36.995974,6.37272079 C39.5910292,6.37272079 41.9923317,8.06159841 43.1395707,9.09323497 C44.2868098,10.1248715 44.2868098,11.5598817 43.1395707,12.331931 C41.9923317,13.1039802 40.4942745,13.8897822 36.995974,13.8897822 C33.4976734,13.8897822 20.1438833,13.8897822 18.0173797,13.8897822 C15.8908761,13.8897822 7.19874246,10.6124042 5.23182023,9.73819669 C3.26489801,8.8639892 3.123576,8.07591327 3.194237,7.51655828 C3.26489801,6.9572033 3.81978261,6.37272079 4.70400002,6.37272079 C5.2934783,6.37272079 6.02220007,6.37272079 6.89016534,6.37272079 Z" id="Path-3" fill="#FFFFFF"></path>
                <g id="plane-details" transform="translate(12.253653, 8.503776)" stroke="#BFC9DB" stroke-linecap="round" stroke-width="1.25">
                    <line x1="25.4457831" y1="0.536932961" x2="30.4210455" y2="0.553609506" id="Path-11"></line>
                    <line x1="1.06024096" y1="0.536932961" x2="2.05959968" y2="0.553609506" id="Path-11-Copy"></line>
                    <line x1="5.30120482" y1="0.536932961" x2="6.30056354" y2="0.553609506" id="Path-11-Copy-2"></line>
                    <line x1="9.54216867" y1="0.536932961" x2="10.5415274" y2="0.553609506" id="Path-11-Copy-3"></line>
                    <line x1="13.7831325" y1="0.536932961" x2="14.7824913" y2="0.553609506" id="Path-11-Copy-4"></line>
                    <line x1="18.0240964" y1="0.536932961" x2="19.0234551" y2="0.553609506" id="Path-11-Copy-5"></line>
                </g>
                <path d="M6.89016534,6.37272079 C25.2306676,6.37272079 35.2659371,6.37272079 36.995974,6.37272079 C39.5910292,6.37272079 41.9923317,8.06159841 43.1395707,9.09323497 C44.2868098,10.1248715 44.2868098,11.5598817 43.1395707,12.331931 C41.9923317,13.1039802 40.4942745,13.8897822 36.995974,13.8897822 C33.4976734,13.8897822 20.1438833,13.8897822 18.0173797,13.8897822 C15.8908761,13.8897822 7.19874246,10.6124042 5.23182023,9.73819669 C3.26489801,8.8639892 3.123576,8.07591327 3.194237,7.51655828 C3.26489801,6.9572033 3.81978261,6.37272079 4.70400002,6.37272079 C5.2934783,6.37272079 6.02220007,6.37272079 6.89016534,6.37272079 Z" id="Path-3" stroke="#00266B" stroke-linejoin="round"></path>
                <path d="M11.6263408,6.44319553 C8.91526889,3.2063551 7.17631276,1.29006316 6.40947245,0.694319705 C5.64263213,0.0985762544 4.55427901,-0.113795253 3.1444131,0.0572051815 L6.40947245,6.44319553" id="Path-4" stroke="#00266B" stroke-linejoin="round"></path>
                <g id="Group-14-Copy" transform="translate(14.542388, 6.978117)" stroke="#00266B">
                    <polygon id="Path-14" fill="#BFC9DB" points="14.6941628 6.13737976 14.6941628 8.89836941 9.06797774 8.89836941 7.2400651 8.13130637"></polygon>
                    <polygon id="Path-13" fill="#FFFFFF" stroke-linecap="round" stroke-linejoin="round" transform="translate(9.065877, 6.483176) rotate(18.000000) translate(-9.065877, -6.483176) " points="6.85418672 5.25446343 17.2471007 2.32460217 4.48975563 10.6417506 0.884652505 10.6281517"></polygon>
                </g>
                <g id="Group-11-Copy" transform="translate(0.000000, 5.298855)">
                    <polygon id="Rectangle" fill="#BFC9DB" points="0.262240312 0.86556362 3.85867888 0.86556362 8.65393031 4.22855583 5.05749174 4.22855583"></polygon>
                    <line x1="4.29915622" y1="3.73496498" x2="9.54216867" y2="3.73496498" id="Path-6" stroke="#00266B" stroke-linecap="round"></line>
                    <line x1="4.03691591" y1="3.65064866" x2="5.73978297e-14" y2="0.585314269" id="Path-7" stroke="#00266B" stroke-linecap="round"></line>
                    <line x1="7.9705206" y1="3.65064866" x2="3.93360469" y2="0.585314269" id="Path-7-Copy" stroke="#00266B" stroke-linecap="round"></line>
                    <line x1="3.93360469" y1="0.560498702" x2="0.262240312" y2="0.560498702" id="Path-10" stroke="#00266B" stroke-linecap="round"></line>
                </g>
            </g>
            <g id="vaccine-blurb-copy" transform="translate(13.467868, 9.000000)">
                <path d="M8.5,17 C13.1945693,17 17,13.194231 17,8.5 C17,3.805769 13.1945693,0 8.5,0 C3.80543069,0 0,3.805769 0,8.5 C0,13.194231 3.80543069,17 8.5,17" id="Fill-44" fill="#0B2253"></path>
                <g id="Group" transform="translate(3.992273, 4.210916)">
                    <line x1="0" y1="7.38594951" x2="1.45761678" y2="8.84356629" id="Stroke-46" stroke="#FEFEFE" stroke-linecap="round" stroke-linejoin="round"></line>
                    <line x1="0.822527137" y1="5.1053909" x2="3.73879741" y2="8.02166118" id="Stroke-48" stroke="#FEFEFE" stroke-linecap="round" stroke-linejoin="round"></line>
                    <line x1="8.83879741" y1="0" x2="7.04010245" y2="1.79869496" id="Stroke-50" stroke="#FEFEFE" stroke-linecap="round" stroke-linejoin="round"></line>
                    <polygon id="Fill-52" fill="#FEFEFE" points="1.27567386 8.66172704 0.18194292 7.5679961 1.73390048 6.01707525 2.82763142 7.10976948"></polygon>
                    <path d="M3.10619588,7.38905964 L1.44538358,5.72824735 C1.30335407,5.58621783 1.30335407,5.35399439 1.44538358,5.21092816 L5.14540798,1.51194048 C5.58912062,1.06719112 6.30963532,1.06719112 6.75334797,1.51194048 L7.33286986,2.09042566 C7.77658251,2.53413831 7.77658251,3.25465301 7.33286986,3.69836565 L3.64217588,7.38905964 C3.49392609,7.53730943 3.25444566,7.53730943 3.10619588,7.38905964" id="Fill-54" fill="#FEFEFE"></path>
                </g>
            </g>
            <ellipse id="Oval" fill="#C2CCDE" fill-rule="nonzero" cx="30.0384615" cy="46" rx="19.0384615" ry="2"></ellipse>
        </g>
    </g>
</svg>