<?xml version="1.0" encoding="UTF-8"?>
<svg width="31px" height="37px" viewBox="0 0 31 37" version="1.1" xmlns="http://www.w3.org/2000/svg" xmlns:xlink="http://www.w3.org/1999/xlink">
    <!-- Generator: Sketch 52.5 (67469) - http://www.bohemiancoding.com/sketch -->
    <title>where-we-fly</title>
    <desc>Created with Sketch.</desc>
    <defs>
        <polygon id="path-1" points="0.615440379 0.747989837 19.0939702 0.747989837 19.0939702 5.40650407 0.615440379 5.40650407"></polygon>
        <polygon id="path-3" points="0.611836043 0.565880759 22.5505284 0.565880759 22.5505284 33.5623157 0.611836043 33.5623157"></polygon>
        <polygon id="path-5" points="0.658692412 0.100788829 19.6102913 0.100788829 19.6102913 13.6940441 0.658692412 13.6940441"></polygon>
    </defs>
    <g id="Page-1" stroke="none" stroke-width="1" fill="none" fill-rule="evenodd">
        <g id="where-we-fly">
            <g id="Group-3" transform="translate(6.307588, 30.972510)">
                <g id="Fill-1-Clipped">
                    <mask id="mask-2" fill="white">
                        <use xlink:href="#path-1"></use>
                    </mask>
                    <g id="path-1"></g>
                    <path d="M19.0939702,3.07729201 C19.0939702,4.36403997 14.9570934,5.40659418 9.85425475,5.40659418 C4.75141599,5.40659418 0.615440379,4.36403997 0.615440379,3.07729201 C0.615440379,1.79054404 4.75141599,0.747989837 9.85425475,0.747989837 C14.9570934,0.747989837 19.0939702,1.79054404 19.0939702,3.07729201" id="Fill-1" fill="#D8D8D8" mask="url(#mask-2)"></path>
                </g>
            </g>
            <path d="M5.40605352,6.96528929 C5.0636416,7.08243022 4.6969004,7.2130874 4.30312669,7.36176626 C2.92086383,7.88259282 1.35748307,8.57462534 0.50776084,9.42705081 C0.119393631,9.81812128 0.0437025745,9.99563482 0.0473069106,10.1199844 C0.0473069106,10.1659397 0.0554166667,10.1911701 0.0590210027,10.2046863 C0.0590210027,10.2001809 0.0581199187,10.1956755 0.0581199187,10.1920711 C0.0743394309,10.233521 0.429366532,10.4948354 1.72422426,10.7570508 C1.91255081,10.3416511 2.64242886,9.7153977 4.20671071,8.98461856 C4.39143293,8.8981145 4.57074865,8.81791802 4.74736111,8.73862263 C4.92036924,8.12678659 5.14113482,7.53387331 5.40605352,6.96528929" id="Fill-4" fill="#00216D"></path>
            <g id="Group-8" transform="translate(4.505420, 0.335654)">
                <g id="Fill-6-Clipped">
                    <mask id="mask-4" fill="white">
                        <use xlink:href="#path-3"></use>
                    </mask>
                    <g id="path-3"></g>
                    <path d="M22.5469241,11.4677357 C22.01979,11.5983929 20.9132588,11.8074444 19.9301761,11.9939688 C19.7607723,12.0264078 19.6003794,12.0561437 19.4480962,12.0858794 C19.1957927,16.1722954 15.8041125,19.4098903 11.6519173,19.4098903 C8.14579946,19.4098903 5.17762873,17.0986097 4.19004066,13.9159811 C2.71406504,13.8871463 1.86794716,13.8231693 0.755108401,13.700622 C2.3671477,21.477878 11.5311721,33.5623157 11.5311721,33.5623157 C11.5311721,33.5623157 22.5505284,19.0350393 22.5505284,11.5848766 C22.5505284,11.5461301 22.5478252,11.5073835 22.5469241,11.4677357 M3.96927506,10.1918008 C4.63067073,6.54871816 7.81780487,3.7850935 11.6519173,3.7850935 C14.5389905,3.7850935 17.0593225,5.35207859 18.4118496,7.68138076 C18.9272697,7.56333875 19.4381843,7.45070326 19.8301558,7.36239702 C20.1698645,7.28670596 20.4167615,7.23264092 20.4870461,7.21461924 C20.8384688,7.12811518 21.1961992,7.06954471 21.5656437,7.03260027 C19.831958,3.21921274 15.9933401,0.565520326 11.5329742,0.565520326 C5.94174797,0.565520326 1.32549458,4.7312317 0.611836043,10.1269228 C1.33450542,10.1791856 2.1076355,10.2062182 2.9195122,10.2062182 C3.27544038,10.2062182 3.62596206,10.2008117 3.96927506,10.1918008" id="Fill-6" fill="#00216D" fill-rule="nonzero" mask="url(#mask-4)"></path>
                </g>
            </g>
            <g id="Group-11" transform="translate(10.813008, 4.841073)">
                <g id="Fill-9-Clipped">
                    <mask id="mask-6" fill="white">
                        <use xlink:href="#path-5"></use>
                    </mask>
                    <g id="path-5"></g>
                    <path d="M7.60334688,7.91088686 C7.60334688,7.91088686 5.32450542,8.01090718 5.19204607,8.01270934 C4.95055556,8.01631369 4.76583333,8.01451152 4.68924119,8.00009418 C4.35223577,7.93341395 3.66560976,7.87033808 3.66831301,7.87123916 C3.66831301,7.87123916 3.66831301,7.87033808 3.66651084,7.86943699 C3.12135501,8.29925407 1.53454607,9.60041938 1.30296748,9.75901016 C1.12365177,9.88245867 1.05156504,9.91219444 1.05156504,9.91219444 C0.969566395,9.92841395 0.83350271,9.95094106 0.762317073,9.96085298 C0.728075881,9.96625948 0.69203252,9.97166599 0.658692412,9.97617141 C1.33991192,9.23728252 1.9895935,8.49028388 2.59962737,7.73787873 C2.4230149,7.654979 2.56718835,7.40898307 2.72668022,7.28463347 C2.72668022,7.28463347 1.61474255,5.93390854 1.11914634,5.27341395 C1.17411246,5.24097494 1.47777778,5.05354946 1.57779811,4.99317683 C1.65979674,4.94812263 1.88596884,5.08238414 1.88596884,5.08238414 C1.88596884,5.08238414 3.20335366,5.79424052 3.21957317,5.80415244 C3.22137534,5.80144919 3.31328591,5.3950603 3.35743903,5.19321748 C3.35743903,5.19321748 3.40429539,5.18600881 3.51242548,5.1301416 C3.61875338,5.07517548 3.69985095,5.09950475 3.73409215,5.13194376 C3.76833333,5.16348171 4.17742548,6.17359688 4.17652439,6.17900338 C4.2945664,6.21054133 4.40359756,6.23396951 4.49550813,6.25379336 C4.49550813,6.25199119 4.92262196,6.10421341 5.20826558,6.01410501 C5.49300813,5.92309553 6.89960027,5.4905752 7.90430894,5.18240447 C7.33482385,3.18740447 6.45536586,0.581469513 6.29677506,0.185893631 C6.29677506,0.185893631 6.68334011,0.0939830624 7.16992548,0.101191734 C7.28075881,0.102092818 7.36726288,0.240859756 7.36726288,0.240859756 C8.34854336,1.46993835 10.4633875,4.10470799 10.6030556,4.38584621 C11.691565,4.10741125 14.1244919,3.5802771 14.3776965,3.5181023 C15.2589567,3.29913889 16.0257792,3.29553456 16.7069986,3.332479 L16.7078997,3.332479 C17.4945461,3.39285163 18.5434078,3.5523435 19.0714431,3.65416599 C19.21021,3.6820996 19.317439,3.71994513 19.3985366,3.76680149 C19.8274525,4.0200061 19.5183808,4.52010773 19.2390447,4.76159823 C18.9119513,5.05084621 16.903435,5.9248977 16.1032723,6.13935569 C15.4382723,6.31146274 13.245935,6.70613754 12.3376423,6.88725542 C12.1339973,6.9278042 11.9961314,6.95844106 11.948374,6.97736383 C11.873584,7.0070996 11.7402236,7.01070393 11.6230827,7.1197351 C11.4987331,7.23507385 11.3059011,7.37023645 10.9851152,7.72075813 C10.8643699,7.8523164 10.2282046,8.50289905 10.2264024,8.50109688 C9.14420054,9.58149662 7.67633468,10.9024857 7.17803523,11.3683462 C6.84913957,11.6855278 5.42903116,12.8434207 4.61805556,13.4111037 C4.30718157,13.6273638 4.21977643,13.5705956 3.96837399,13.6174519 C3.71697154,13.6643082 2.77623984,13.6940441 2.77623984,13.6940441 C2.77623984,13.6940441 7.47539295,8.20193699 7.60334688,7.91088686" id="Fill-9" fill="#F8941A" mask="url(#mask-6)"></path>
                </g>
            </g>
            <path d="M10.2652392,11.7386918 C10.2652392,11.7386918 0.000991192412,13.060582 0.893064364,11.2773367 C0.893064364,11.2773367 -1.06859553,12.2874519 0.822779811,13.4174112 C0.822779811,13.4174112 3.78554404,14.0121267 11.3951985,12.9416389 L10.2652392,11.7386918 Z" id="Fill-12" fill="#F8941A"></path>
        </g>
    </g>
</svg>