<svg id="Layer_1" xmlns="http://www.w3.org/2000/svg" xmlns:xlink="http://www.w3.org/1999/xlink" viewBox="0 0 100 100"><style>.st0{fill:#ffdd30}.st0,.st1{clip-path:url(#SVGID_2_)}</style><defs><path id="SVGID_1_" d="M6.3 11.4h87.5v77.1H6.3z"/></defs><clipPath id="SVGID_2_"><use xlink:href="#SVGID_1_" overflow="visible"/></clipPath><path class="st0" d="M44.8 88.6c21.3 0 38.6-17.3 38.6-38.6S66.1 11.4 44.8 11.4 6.3 28.7 6.3 50s17.2 38.6 38.5 38.6"/><path class="st1" d="M81.5 48l3.7-1L88 59l5.7-1.4-.2-3.3-1.6.4-2.1-8.8 3.9-1-1-4.4-3.9 1-1.2-4.8-4.2 2.9.7 3-3.7 1 1 4.4"/><path class="st1" d="M81.5 48l3.7-1L88 59l5.7-1.4-.2-3.3-1.6.4-2.1-8.8 3.9-1-1-4.4-3.9 1-1.2-4.8-4.2 2.9.7 3-3.7 1 1 4.4"/><path class="st1" d="M80.8 44c-1.4-1.5-3.5-2.5-6.2-2.5-5.8 0-8.7 4.6-8.7 8.5 0 3.9 2.8 8.5 8.7 8.5 5.8 0 8.7-4.6 8.7-8.5 0-1.7-.5-3.4-1.5-4.9l-1-1.1zm-2.4 6.1c0 2.3-1.8 4.1-3.9 4.1-2.1 0-3.9-1.7-3.9-4s1.8-4.1 3.9-4.1c2.2-.1 3.9 1.6 3.9 4m-12.6 0c0-3.9-2.8-8.5-8.7-8.5s-8.7 4.6-8.7 8.5c0 3.9 2.8 8.5 8.7 8.5s8.7-4.6 8.7-8.5m-4.8 0c0 2.3-1.8 4.1-3.9 4.1s-3.9-1.7-3.9-4 1.8-4.1 3.9-4.1 3.9 1.6 3.9 4m-17.3-1.8h4.9c-.8-3.9-4.3-6.7-8.5-6.7-4.8 0-8.5 3.8-8.5 8.5 0 4.8 3.7 8.6 8.6 8.6 4.3 0 7.6-3 8.4-6.6h-4.9c-.5 1-1.5 2.1-3.5 2.1-2.3 0-3.8-1.7-3.8-4.1 0-1.2.4-2.2 1-3 .7-.8 1.7-1.2 2.8-1.1 2 0 3 1.2 3.5 2.3m-17.1-1.7h4.7c-.4-4.2-4.1-5.1-6.2-5.1-3.3 0-6.2 2.1-6.2 5.4 0 2.2 1.7 3.5 3.8 4.2 3.1 1.2 4.3 1.3 4.3 2.4 0 .8-.9 1.2-1.7 1.2-.2 0-1.6 0-1.8-1.5h-4.8c.4 4.2 4.1 5.3 6.5 5.3 3.6 0 6.5-2.1 6.5-5.6 0-3.5-2.9-4.3-5.6-5-1.3-.4-2.5-.9-2.5-1.6 0-.4.3-1.1 1.4-1.1 1.5.2 1.5 1 1.6 1.4"/><path class="st1" d="M80.8 44c-1.4-1.5-3.5-2.5-6.2-2.5-5.8 0-8.7 4.6-8.7 8.5 0 3.9 2.8 8.5 8.7 8.5 5.8 0 8.7-4.6 8.7-8.5 0-1.7-.5-3.4-1.5-4.9l-1-1.1zm-2.4 6.1c0 2.3-1.8 4.1-3.9 4.1-2.1 0-3.9-1.7-3.9-4s1.8-4.1 3.9-4.1c2.2-.1 3.9 1.6 3.9 4m-12.6 0c0-3.9-2.8-8.5-8.7-8.5s-8.7 4.6-8.7 8.5c0 3.9 2.8 8.5 8.7 8.5s8.7-4.6 8.7-8.5m-4.8 0c0 2.3-1.8 4.1-3.9 4.1s-3.9-1.7-3.9-4 1.8-4.1 3.9-4.1 3.9 1.6 3.9 4m-17.3-1.8h4.9c-.8-3.9-4.3-6.7-8.5-6.7-4.8 0-8.5 3.8-8.5 8.5 0 4.8 3.7 8.6 8.6 8.6 4.3 0 7.6-3 8.4-6.6h-4.9c-.5 1-1.5 2.1-3.5 2.1-2.3 0-3.8-1.7-3.8-4.1 0-1.2.4-2.2 1-3 .7-.8 1.7-1.2 2.8-1.1 2 0 3 1.2 3.5 2.3m-17.1-1.7h4.7c-.4-4.2-4.1-5.1-6.2-5.1-3.3 0-6.2 2.1-6.2 5.4 0 2.2 1.7 3.5 3.8 4.2 3.1 1.2 4.3 1.3 4.3 2.4 0 .8-.9 1.2-1.7 1.2-.2 0-1.6 0-1.8-1.5h-4.8c.4 4.2 4.1 5.3 6.5 5.3 3.6 0 6.5-2.1 6.5-5.6 0-3.5-2.9-4.3-5.6-5-1.3-.4-2.5-.9-2.5-1.6 0-.4.3-1.1 1.4-1.1 1.5.2 1.5 1 1.6 1.4"/></svg>