<?xml version="1.0" encoding="UTF-8"?>
<svg width="11px" height="11px" viewBox="0 0 11 11" version="1.1" xmlns="http://www.w3.org/2000/svg" xmlns:xlink="http://www.w3.org/1999/xlink">
    <title>Icon/12px/Ic_external_link_e_12</title>
    <defs>
        <filter color-interpolation-filters="auto" id="filter-1">
            <feColorMatrix in="SourceGraphic" type="matrix" values="0 0 0 0 0.007843 0 0 0 0 0.329412 0 0 0 0 0.925490 0 0 0 1.000000 0"></feColorMatrix>
        </filter>
        <path d="M4.64118856,0.845322036 C4.89351414,0.845322036 5.09806444,1.0488672 5.09806444,1.29995288 C5.09806444,1.55103855 4.89351414,1.75458371 4.64118856,1.75458371 L1.0660437,1.75458371 C0.981935179,1.75458371 0.913751747,1.8224321 0.913751747,1.90612733 L0.913751747,9.93919471 C0.913751747,10.0228899 0.981935179,10.0907383 1.0660437,10.0907383 L8.98522551,10.0907383 C9.06933403,10.0907383 9.13751747,10.0228899 9.13751747,9.93919471 L9.13751747,6.44057457 C9.13751747,6.18948889 9.34206776,5.98594373 9.59439334,5.98594373 C9.84671892,5.98594373 10.0512692,6.18948889 10.0512692,6.44057457 L10.0512692,9.93919471 C10.0512692,10.5250613 9.57398519,11 8.98522551,11 L1.0660437,11 C0.477284024,11 0,10.5250613 0,9.93919471 L0,1.90612733 C0,1.32026074 0.477284024,0.845322036 1.0660437,0.845322036 L4.64118856,0.845322036 Z M10.6788607,0.00114629649 C10.8703589,-0.0143441629 11.014415,0.129004056 10.998848,0.319561294 L10.998848,0.319561294 L10.8795014,1.77591035 C10.8756097,1.82354966 10.8711002,1.87878053 10.8662896,1.93780717 L10.8363448,2.30715012 L10.8363448,2.30715012 L10.8234109,2.46904694 L10.7050527,3.92392072 C10.6897328,4.11472383 10.5659385,4.15971993 10.4300365,4.02448576 L10.4300365,4.02448576 L9.72655846,3.32446453 C9.59065649,3.18923036 9.36802434,3.18947624 9.23236946,3.32446453 L9.23236946,3.32446453 L5.44564624,7.09258023 C5.30999136,7.22756852 5.08735922,7.2278144 4.95145724,7.09258023 L4.95145724,7.09258023 L3.73995216,5.88702984 C3.60429803,5.7520408 3.60429803,5.53025676 3.73995291,5.39526847 L3.73995291,5.39526847 L7.52667613,1.62715277 C7.66233101,1.49216448 7.6625781,1.27062632 7.52667613,1.13539215 L7.52667613,1.13539215 L6.95539364,0.566916883 C6.81949167,0.431682714 6.86470996,0.30849668 7.05645529,0.293252101 L7.05645529,0.293252101 L8.51851345,0.175475434 C8.71001169,0.160476735 9.02357461,0.135151064 9.21507285,0.119660605 L9.21507285,0.119660605 Z" id="path-2"></path>
    </defs>
    <g id="Highflyer-page" stroke="none" stroke-width="1" fill="none" fill-rule="evenodd">
        <g id="tablet_03a_Highflyer-partners" transform="translate(-311.000000, -560.000000)">
            <g id="Cards-/-01-Image-/-2-Copy-3" transform="translate(30.000000, 409.000000)">
                <g id="generic/external-link-copy-43" transform="translate(280.000000, 151.000000)" filter="url(#filter-1)">
                    <g transform="translate(1.000000, 0.000000)">
                        <rect id="container" x="0" y="0" width="11" height="11"></rect>
                        <mask id="mask-3" fill="white">
                            <use xlink:href="#path-2"></use>
                        </mask>
                        <use id="Mask" fill="#222222" fill-rule="nonzero" xlink:href="#path-2"></use>
                    </g>
                </g>
            </g>
        </g>
    </g>
</svg>